<svg width="72" height="33" viewBox="0 0 72 33" fill="none" xmlns="http://www.w3.org/2000/svg">
<path d="M0.550386 0.5V13.9628L10.3556 19.7L0 25.7893L11.4564 32.5L22.3828 26.1V13.3L0.550386 0.5Z" fill="#FEFEFE"/>
<path d="M1.10059 25.7893L11.4562 31.8786V19.7207L1.10059 25.7893Z" fill="#ED3B7F"/>
<path d="M1.10059 1.47363V13.6316L11.4562 7.54224L1.10059 1.47363Z" fill="#FCB832"/>
<path d="M11.4562 7.54199L1.10059 13.6313L11.4562 19.7206V7.54199Z" fill="#F79420"/>
<path d="M21.832 25.7898V13.6318L11.4561 19.7212L21.832 25.7898Z" fill="#7B1B66"/>
<path d="M11.4561 19.7206L21.832 13.6313L11.4561 7.54199V19.7206Z" fill="#F05A22"/>
<path d="M21.832 25.7893L11.4561 19.7207V31.8786L21.832 25.7893Z" fill="#C30C41"/>
<path d="M68.8403 26.059H72V23.9878V19.8868C72 19.2654 72 13.7768 72 13.7768V13.0933V11.9541C71.6535 12.0577 70.1042 12.4926 69.3092 13.4454C68.9627 13.8182 68.8403 14.336 68.8403 14.7916V24.2156V26.059Z" fill="#EC1C24"/>
<path d="M43.8685 12.0166C39.7507 12.0166 36.5503 15.1648 36.5503 19.1829C36.5503 23.1804 39.7303 26.3079 43.8073 26.3079C47.9047 26.3079 51.146 23.1804 51.146 19.1622C51.146 15.1648 47.9455 12.0166 43.8685 12.0166ZM43.8685 23.5532C41.5038 23.5532 39.71 21.6684 39.71 19.1622C39.71 16.6354 41.4834 14.7506 43.8073 14.7506C46.1516 14.7506 47.9659 16.6975 47.9659 19.1829C47.9659 21.6684 46.2128 23.5532 43.8685 23.5532Z" fill="#EC1C24"/>
<path d="M60.7064 12.0783C58.7494 12.0783 57.2817 12.8861 56.0586 14.5637C56.0586 13.9217 56.0586 8.433 56.0586 8.433V7.74951V6.61035C55.7121 6.71391 54.1832 7.14886 53.3678 8.10161C53.0416 8.45372 52.8989 8.99223 52.8989 9.44789V18.8718V20.8809V26.0589H56.0586C56.0586 26.0589 56.0586 24.5055 56.0586 24.0084C57.2002 25.5618 58.7494 26.3696 60.7064 26.3696C63.8049 26.3696 67.1073 23.8427 67.1073 19.1825C67.1073 14.5637 63.8049 12.0783 60.7064 12.0783ZM59.9929 23.6149C57.7506 23.6149 56.1401 21.7508 56.1401 19.1825C56.1401 16.6971 57.8117 14.8123 59.9929 14.8123C62.2557 14.8123 63.9069 16.6557 63.9069 19.1825C63.9069 21.8337 62.3372 23.6149 59.9929 23.6149Z" fill="#EC1C24"/>
<path d="M28.1108 26.059H31.2705V20.7153C31.2705 17.6499 32.8606 15.7237 35.633 15.4751C35.9999 15.4544 36.4075 15.3716 36.4075 14.7709V12.2026H36.0203C33.9206 12.2026 32.249 13.3004 31.2705 15.2059C31.2705 14.5224 31.2705 11.9748 31.2705 11.9748V11.9541C30.924 12.0577 29.3951 12.4926 28.5593 13.4454C28.2535 13.7975 28.1108 14.336 28.1108 14.7916V15.5787V26.059Z" fill="#EC1C24"/>
</svg>
